<svg width="83" height="20" viewBox="0 0 83 20" fill="none" xmlns="http://www.w3.org/2000/svg">
<g id="&#235;&#166;&#172;&#237;&#148;&#140;&#235;&#160;&#136;&#236;&#157;&#180;">
<path id="Vector" d="M76.3389 9.88318C76.3389 11.6589 76.1492 13.1776 75.7698 14.3925C75.3667 15.6308 74.8688 16.6355 74.2523 17.3832C73.6121 18.1308 72.9008 18.6682 72.0946 19.0187C71.2647 19.3458 70.4348 19.5327 69.5812 19.5327C68.7039 19.5327 67.874 19.3458 67.0678 19.0187C66.2379 18.6682 65.5266 18.1308 64.9101 17.3832C64.2699 16.6355 63.7719 15.6308 63.3926 14.3925C63.0132 13.1776 62.8235 11.6589 62.8235 9.88318C62.8235 8.10748 63.0132 6.61215 63.3926 5.37383C63.7719 4.15888 64.2699 3.17757 64.9101 2.40654C65.5266 1.65888 66.2379 1.09813 67.0678 0.747664C67.874 0.420561 68.7039 0.233645 69.5812 0.233645C70.4348 0.233645 71.2647 0.420561 72.0946 0.747664C72.9008 1.09813 73.6121 1.65888 74.2523 2.40654C74.8688 3.17757 75.3667 4.15888 75.7698 5.37383C76.1492 6.61215 76.3389 8.10748 76.3389 9.88318ZM66.5224 9.88318C66.5224 11.215 66.5936 12.3131 66.7833 13.1776C66.9255 14.0654 67.1626 14.743 67.4472 15.257C67.708 15.7944 68.04 16.1682 68.4193 16.3551C68.775 16.5888 69.1544 16.6822 69.5812 16.6822C69.9606 16.6822 70.3637 16.5888 70.743 16.3551C71.0987 16.1682 71.4307 15.7944 71.7152 15.2804C71.976 14.7664 72.1894 14.0654 72.3791 13.1776C72.5214 12.3131 72.6162 11.215 72.6162 9.85981C72.6162 8.5514 72.5214 7.45327 72.3791 6.56542C72.1894 5.70093 71.976 5 71.7152 4.48598C71.4307 3.97196 71.0987 3.62149 70.743 3.38785C70.3637 3.20093 69.9606 3.08411 69.5812 3.08411C69.1544 3.08411 68.775 3.20093 68.4193 3.38785C68.04 3.62149 67.708 3.97196 67.4472 4.48598C67.1626 5.02336 66.9255 5.7243 66.7833 6.58879C66.5936 7.47664 66.5224 8.57477 66.5224 9.88318ZM82.5512 19.5327H78.8286V0H82.5512V19.5327Z" fill="#F8FAFC"/>
<path id="Vector_2" d="M40.8153 3.31776V0.467289H50.5132V11.3785H44.2297V16.4486H50.7503V19.2991H40.8153V8.52804H47.0988V3.31776H40.8153ZM53.24 19.5327V10.6075L51.2008 11.285V8.36449L53.24 7.68692V0H56.6544V19.5327H53.24ZM61.8235 19.5327H58.3853V0H61.8235V19.5327Z" fill="#F8FAFC"/>
<path id="Vector_3" d="M34.9307 14.8365V14.0187H21.1782V11.8458H38.6534V17.0094H24.9009V17.8271H38.8905V20H21.1782V14.8365H34.9307ZM21.1782 0.210327H38.6534V2.82715H36.0689V4.39257H38.6534V7.00939H21.1782V4.39257H23.7864V2.82715H21.1782V0.210327ZM20.0164 8.13089H39.8152V10.7477H20.0164V8.13089ZM27.5091 4.39257H32.3462V2.82715H27.5091V4.39257Z" fill="#F8FAFC"/>
<path id="Vector_4" d="M0 3.31776V0.467289H12.069V11.3785H3.72266V16.4486H12.5432V19.2991H0V8.52804H8.34635V3.31776H0ZM19.0164 19.5327H15.2937V0H19.0164V19.5327Z" fill="#F8FAFC"/>
</g>
</svg>
